<svg width="512" height="75" viewBox="0 0 512 75" fill="none" xmlns="http://www.w3.org/2000/svg">
<g clip-path="url(#clip0_28529_12569)">
<path d="M130.023 46.6666C130.023 51.8753 125.799 56.0985 120.591 56.0985C115.382 56.0985 111.159 51.8753 111.159 46.6666C111.159 41.4579 115.382 37.2346 120.591 37.2346C125.799 37.2346 130.023 41.4579 130.023 46.6666Z" fill="#FEFDF9"/>
<path d="M127.136 16.3932C130.819 12.7098 130.819 6.73781 127.136 3.05441C123.453 -0.629 117.481 -0.628999 113.797 3.05441L76.8513 40.0003C73.1679 43.6837 73.1679 49.6556 76.8513 53.339C80.5347 57.0225 86.5067 57.0225 90.1901 53.3391L127.136 16.3932Z" fill="#FEFDF9"/>
<path d="M92.9446 9.75104C92.9446 14.9597 88.7214 19.183 83.5127 19.183C78.304 19.183 74.0807 14.9597 74.0807 9.75104C74.0807 4.54235 78.304 0.319092 83.5127 0.319092C88.7214 0.319092 92.9446 4.54235 92.9446 9.75104Z" fill="#FEFDF9"/>
<path d="M55.9786 46.6666C55.9786 51.8753 51.7553 56.0985 46.5466 56.0985C41.3379 56.0985 37.1147 51.8753 37.1147 46.6666C37.1147 41.4579 41.3379 37.2346 46.5466 37.2346C51.7553 37.2346 55.9786 41.4579 55.9786 46.6666Z" fill="#FEFDF9"/>
<path d="M53.0919 16.3932C56.7753 12.7098 56.7753 6.73781 53.0919 3.05441C49.4085 -0.629 43.4365 -0.628999 39.7531 3.05441L2.80724 40.0003C-0.876167 43.6837 -0.876164 49.6556 2.80724 53.339C6.49065 57.0225 12.4626 57.0225 16.146 53.3391L53.0919 16.3932Z" fill="#FEFDF9"/>
</g>
<g clip-path="url(#clip1_28529_12569)">
<path d="M462.165 1.87428H471.803V10.1324C474.355 4.62352 480.352 0.203981 489.886 0.297351C506.993 0.494467 511.517 12.8816 511.517 23.9927V55.3548H501.194V26.3581C501.194 16.7202 497.459 9.84189 487.033 9.94564C477.001 10.039 472.384 16.3363 472.384 25.58V55.3652H462.165V1.87428Z" fill="#FEFDF9"/>
<path d="M410.355 31.8563C410.842 42.6666 420.283 48.1754 428.344 48.1754C435.523 48.1754 440.825 44.7311 443.781 39.1289H454.395C451.842 45.032 448.108 49.4515 443.584 52.3979C439.061 55.448 433.749 56.9211 428.344 56.9211C410.842 56.9211 400.032 42.8637 400.032 28.7025C400.032 13.369 412.036 0.297119 428.251 0.297119C435.918 0.297119 442.9 3.15011 448.014 8.16099C454.301 14.5517 456.957 22.9032 456.075 31.8563H410.365H410.355ZM445.95 23.8887C445.462 16.8133 438.376 8.84571 428.251 9.04282C417.835 9.04282 411.05 16.6162 410.552 23.8887H445.939H445.95Z" fill="#FEFDF9"/>
<path d="M354.986 48.0717L385.373 9.83127H355.806V1.87402H397.138V9.93501L367.674 47.387H397.957V55.3546H354.986V48.0821V48.0717Z" fill="#FEFDF9"/>
<path d="M296.733 1.87404H306.465V11.2111C310.5 4.8204 317.379 0.297119 326.913 0.297119C345.296 0.297119 353.949 15.6306 353.949 28.8996C353.949 44.036 343.035 56.9211 327.017 56.9211C315.905 56.9211 309.318 50.8209 306.963 46.5051V74.8172H296.744V1.87404H296.733ZM343.626 28.5158C343.626 19.7701 337.433 9.84166 324.952 9.84166C319.64 9.84166 315.024 11.9062 311.683 15.3505C308.436 18.6911 306.475 23.4115 306.475 28.7233C306.475 34.035 308.446 38.6516 311.787 41.9922C315.127 45.3328 319.848 47.3974 325.056 47.3974C335.866 47.3974 343.636 39.0459 343.636 28.6195V28.5261L343.626 28.5158Z" fill="#FEFDF9"/>
<path d="M233.034 1.87404H242.765V11.2111C246.801 4.8204 253.679 0.297119 263.213 0.297119C281.597 0.297119 290.249 15.6306 290.249 28.91C290.249 44.0464 279.335 56.9315 263.317 56.9315C252.206 56.9315 245.618 50.8313 243.263 46.5155V74.8275H233.044V1.87404H233.034ZM279.927 28.5158C279.927 19.7701 273.733 9.84166 261.252 9.84166C255.941 9.84166 251.324 11.9062 247.983 15.3505C244.736 18.6911 242.775 23.4115 242.775 28.7233C242.775 34.035 244.747 38.6516 248.087 41.9922C251.428 45.3328 256.148 47.3974 261.356 47.3974C272.166 47.3974 279.937 39.0459 279.937 28.6195V28.5261L279.927 28.5158Z" fill="#FEFDF9"/>
<path d="M221.528 55.3546H211.309V46.0175C207.574 53.1967 199.908 56.9315 191.452 56.9315C174.241 56.9212 164.022 43.5484 164.022 28.6091C164.022 12.29 175.922 0.297119 191.452 0.297119C202.066 0.297119 208.851 6.20021 211.309 11.3045V1.87404H221.528V55.3546ZM174.241 28.8063C174.335 36.7739 179.947 47.387 192.915 47.387C201.07 47.387 206.879 42.8637 209.525 36.7739C210.708 34.3151 211.299 31.5659 211.392 28.8063C211.486 26.0466 210.998 23.2974 209.815 20.8386C207.263 14.6451 201.267 9.83129 192.708 9.83129C181.503 9.83129 174.231 18.6807 174.231 28.7025V28.7959L174.241 28.8063Z" fill="#FEFDF9"/>
</g>
<defs>
<clipPath id="clip0_28529_12569">
<rect width="130.022" height="55.812" fill="white" transform="translate(0 0.297119)"/>
</clipPath>
<clipPath id="clip1_28529_12569">
<rect width="347.494" height="74.52" fill="white" transform="translate(164.022 0.297119)"/>
</clipPath>
</defs>
</svg>
