<svg width="347" height="75" viewBox="0 0 347 75" fill="none" xmlns="http://www.w3.org/2000/svg">
<g clip-path="url(#clip0_28529_12562)">
<path d="M297.506 1.9356H307.124V10.1761C309.67 4.67898 315.654 0.268874 325.168 0.362045C342.239 0.55874 346.753 12.9195 346.753 24.0068V55.302H336.452V26.3672C336.452 16.7498 332.725 9.88621 322.321 9.98973C312.31 10.0829 307.703 16.3668 307.703 25.5907V55.3123H297.506V1.9356Z" fill="#FEFDF9"/>
<path d="M245.807 31.8537C246.293 42.6408 255.714 48.1379 263.758 48.1379C270.921 48.1379 276.212 44.7009 279.162 39.1107H289.752C287.206 45.0012 283.479 49.4113 278.965 52.3513C274.452 55.3949 269.151 56.865 263.758 56.865C246.293 56.865 235.506 42.8375 235.506 28.7066C235.506 13.4058 247.484 0.361816 263.665 0.361816C271.315 0.361816 278.282 3.20871 283.386 8.2089C289.659 14.5859 292.309 22.9196 291.43 31.8537H245.817H245.807ZM281.326 23.9031C280.839 16.8428 273.768 8.89216 263.665 9.08885C253.271 9.08885 246.5 16.6461 246.003 23.9031H281.315H281.326Z" fill="#FEFDF9"/>
<path d="M190.556 48.0343L220.878 9.87556H191.374V1.9353H232.618V9.97908L203.217 47.3511H233.435V55.3017H190.556V48.0447V48.0343Z" fill="#FEFDF9"/>
<path d="M132.428 1.93537H142.138V11.2525C146.165 4.87544 153.029 0.361816 162.543 0.361816C180.887 0.361816 189.521 15.6626 189.521 28.9033C189.521 44.0073 178.63 56.865 162.646 56.865C151.559 56.865 144.985 50.7778 142.635 46.4712V74.7228H132.438V1.93537H132.428ZM179.22 28.5202C179.22 19.7932 173.04 9.88598 160.586 9.88598C155.286 9.88598 150.679 11.9461 147.345 15.3831C144.105 18.7165 142.149 23.4269 142.149 28.7273C142.149 34.0277 144.116 38.6345 147.449 41.9679C150.782 45.3014 155.493 47.3615 160.69 47.3615C171.477 47.3615 179.231 39.0279 179.231 28.6237V28.5306L179.22 28.5202Z" fill="#FEFDF9"/>
<path d="M68.8642 1.93537H78.5747V11.2525C82.6017 4.87544 89.4654 0.361816 98.9792 0.361816C117.324 0.361816 125.957 15.6626 125.957 28.9136C125.957 44.0177 115.067 56.8753 99.0827 56.8753C87.9953 56.8753 81.4216 50.7881 79.0716 46.4815V74.7331H68.8745V1.93537H68.8642ZM115.657 28.5202C115.657 19.7932 109.476 9.88598 97.0226 9.88598C91.7222 9.88598 87.1154 11.9461 83.7819 15.3831C80.5416 18.7165 78.585 23.4269 78.585 28.7273C78.585 34.0277 80.552 38.6345 83.8854 41.9679C87.2189 45.3014 91.9292 47.3615 97.1261 47.3615C107.913 47.3615 115.667 39.0279 115.667 28.6237V28.5306L115.657 28.5202Z" fill="#FEFDF9"/>
<path d="M57.3831 55.3018H47.186V45.9846C43.4592 53.1485 35.8088 56.8753 27.3716 56.8753C10.1971 56.865 0 43.5208 0 28.6134C0 12.3291 11.8741 0.361816 27.3716 0.361816C37.9621 0.361816 44.7325 6.2523 47.186 11.3457V1.93537H57.3831V55.3018ZM10.1971 28.8101C10.2902 36.7607 15.8909 47.3511 28.8313 47.3511C36.9683 47.3511 42.7656 42.8375 45.4054 36.7607C46.5856 34.3072 47.1757 31.5638 47.2688 28.8101C47.362 26.0564 46.8755 23.313 45.6953 20.8595C43.1486 14.6791 37.1649 9.87563 28.6243 9.87563C17.4437 9.87563 10.1867 18.7062 10.1867 28.7066V28.7997L10.1971 28.8101Z" fill="#FEFDF9"/>
</g>
<defs>
<clipPath id="clip0_28529_12562">
<rect width="346.752" height="74.361" fill="white" transform="translate(0 0.361816)"/>
</clipPath>
</defs>
</svg>
