<svg width="133" height="57" viewBox="0 0 133 57" fill="none" xmlns="http://www.w3.org/2000/svg">
<g clip-path="url(#clip0_28529_12556)">
<path d="M132.332 47.193C132.332 52.4942 128.034 56.7925 122.733 56.7925C117.432 56.7925 113.133 52.4942 113.133 47.193C113.133 41.8918 117.432 37.5935 122.733 37.5935C128.034 37.5935 132.332 41.8918 132.332 47.193Z" fill="#FEFDF9"/>
<path d="M129.395 16.3819C133.143 12.6331 133.143 6.55503 129.395 2.80619C125.646 -0.942655 119.568 -0.942654 115.819 2.80619L78.2166 40.4084C74.4677 44.1572 74.4677 50.2353 78.2166 53.9841C81.9654 57.733 88.0435 57.733 91.7923 53.9841L129.395 16.3819Z" fill="#FEFDF9"/>
<path d="M94.5958 9.62172C94.5958 14.9229 90.2975 19.2212 84.9963 19.2212C79.695 19.2212 75.3968 14.9229 75.3968 9.62172C75.3968 4.3205 79.695 0.0222168 84.9963 0.0222168C90.2975 0.0222168 94.5958 4.3205 94.5958 9.62172Z" fill="#FEFDF9"/>
<path d="M56.973 47.193C56.973 52.4942 52.6747 56.7925 47.3735 56.7925C42.0723 56.7925 37.774 52.4942 37.774 47.193C37.774 41.8918 42.0723 37.5935 47.3735 37.5935C52.6747 37.5935 56.973 41.8918 56.973 47.193Z" fill="#FEFDF9"/>
<path d="M54.035 16.3819C57.7839 12.6331 57.7839 6.55503 54.035 2.80619C50.2862 -0.942655 44.2081 -0.942654 40.4593 2.80619L2.85711 40.4084C-0.891735 44.1572 -0.891735 50.2353 2.85711 53.9841C6.60595 57.733 12.684 57.733 16.4329 53.9841L54.035 16.3819Z" fill="#FEFDF9"/>
</g>
<defs>
<clipPath id="clip0_28529_12556">
<rect width="132.332" height="56.8035" fill="white"/>
</clipPath>
</defs>
</svg>
